<svg xmlns="http://www.w3.org/2000/svg" width="750" height="500"><path fill="#ad1519" d="M0 0h750v500H0z"/><path fill="#fabd00" d="M0 125h750v250H0z"/><path fill="#b50027" d="M249.843 223.055c-10.726-.015-20.42-1.364-27.8-3.443 7.38-2.08 17.074-3.353 27.8-3.375 10.723.022 20.47 1.294 27.849 3.375-7.38 2.079-17.126 3.428-27.85 3.443"/><g stroke="#000"><path fill="none" stroke-width=".243" d="M335.649 219.274c0-5.408 4.622-9.781 10.313-9.781 5.667 0 10.308 4.373 10.308 9.78 0 5.39-4.622 9.763-10.308 9.763-5.69 0-10.313-4.373-10.313-9.762z" transform="matrix(.2037 0 0 .22204 157.315 148.89)"/><path fill="#b50027" stroke-width="1.232" d="M451.967 134.945c31.61 0 59.737 4.68 78.06 11.942 10.485 4.732 24.563 8.229 39.973 10.289 11.735 1.57 22.887 1.892 32.587 1.15 12.971-.255 31.734 3.544 50.502 11.807 15.534 6.893 28.5 15.27 37.113 23.38l-7.453 6.639-2.155 18.849-20.45 23.414-10.217 8.67-24.204 19.375-12.363 1.011-3.76 10.696L453 263.821l-157.077 18.346-3.765-10.696-12.382-1.01-24.2-19.376-10.222-8.67L224.915 219l-2.126-18.849-7.492-6.639c8.651-8.11 21.623-16.487 37.119-23.38 18.768-8.263 37.535-12.062 50.497-11.808 9.7.743 20.856.422 32.592-1.15 15.415-2.06 29.507-5.556 39.973-10.288 18.342-7.262 44.898-11.942 76.489-11.942z" transform="matrix(.2037 0 0 .22204 157.315 148.89)"/><g fill="#9f7e00" stroke-width="1.857"><path d="m564.539 181.605-9.896-16.167c10.734-6.571 18.101-17.991 18.101-31 0-1.471-.086-2.904-.263-4.326-1.02-20.626-26.188-37.67-58.066-37.67-16.588 0-31.523 4.527-42.057 11.794-.287-3.195-.536-5.93-1.02-8.838 11.597-6.758 26.633-10.825 43.077-10.825 36.678 0 65.376 20.841 66.784 45.524a50 50 0 0 1 .196 4.34c0 13.163-6.006 25.019-15.515 33.262l5.26 8.618zm-221.636 0 9.897-16.167c-10.735-6.571-18.102-17.991-18.102-31 0-1.471.086-2.904.263-4.326 1.02-20.626 26.188-37.67 58.066-37.67 16.588 0 31.524 4.527 42.057 11.794.288-3.195.537-5.93 1.02-8.838-11.596-6.758-26.633-10.825-43.077-10.825-36.678 0-65.375 20.841-66.784 45.524a50 50 0 0 0-.196 4.34c0 13.163 6.007 25.019 15.515 33.262l-5.26 8.618z" transform="matrix(.2037 0 0 .22204 157.315 148.89)"/><path d="M591.014 140.468c0-16.114-10.548-30.489-26.542-40.016 9.863 7.937 15.85 18.192 16.727 29.645.124 1.437.196 2.889.196 4.34 0 13.163-6.006 25.019-15.515 33.262l4.833 8.8c12.522-9.34 20.3-22.044 20.3-36.031zM226.272 192.818c-7.013-7.855-11.31-18.005-11.31-29.104a42.6 42.6 0 0 1 4.35-18.8c10.13-20.847 41.918-36.017 79.697-36.017 10.294 0 20.143 1.116 29.239 3.19-2.017 2.199-3.602 4.613-5.145 7.046-7.558-1.47-15.654-2.266-24.094-2.266-34.584 0-63.517 13.45-71.9 31.624a35 35 0 0 0-3.482 15.223c0 11.046 5.174 20.947 13.274 27.706l-12.522 20.453-6.706-5.336 8.599-13.7zM453.82 80.449c8.383 0 15.592 5.542 17.307 12.976 1.121 6.572 1.82 14.054 1.979 22.024.015.83-.058 1.639-.058 2.453.025.944.201 1.96.215 2.922.288 16.722 2.678 31.485 6.084 40.524l-25.54 24.429-25.815-24.43c3.425-9.038 5.796-23.801 6.117-40.523.02-.963.201-1.978.201-2.922 0-.814-.057-1.624-.038-2.453.124-7.97.838-15.452 1.964-22.024 1.696-7.434 9.202-12.976 17.57-12.976z" transform="matrix(.2037 0 0 .22204 157.315 148.89)"/></g></g></svg>
